HIERARCHY
ROOT Root
{
	OFFSET 0.00000 0.00000 0.00000
	CHANNELS 6 Xposition Yposition Zposition Zrotation Xrotation Yrotation
	JOINT Hips
	{
		OFFSET 0 0 0	
		CHANNELS 3 Zrotation Xrotation Yrotation
		JOINT Spine
		{
			OFFSET 0 4 0	
			CHANNELS 3 Zrotation Xrotation Yrotation
			JOINT Spine1
			{
				OFFSET 0 19.4 0	
				CHANNELS 3 Zrotation Xrotation Yrotation
				JOINT Spine2
				{
					OFFSET 0 16.6 0	
					CHANNELS 3 Zrotation Xrotation Yrotation
					JOINT LeftCollar
					{
						OFFSET 0 10 0	
						CHANNELS 3 Zrotation Xrotation Yrotation
						JOINT LeftArm
						{
							OFFSET 15.6 -2 3	
							CHANNELS 3 Zrotation Xrotation Yrotation
							JOINT LeftForeArm
							{
								OFFSET 3.5 -27 -1	
								CHANNELS 3 Zrotation Xrotation Yrotation
								JOINT LeftHand
								{
									OFFSET 1 -27 1	
									CHANNELS 3 Zrotation Xrotation Yrotation
									End Site
									{
										OFFSET 0 -15 0
									}
								}
							}
						}
					}
					JOINT RightCollar
					{
						OFFSET 0 10 0	
						CHANNELS 3 Zrotation Xrotation Yrotation
						JOINT RightArm
						{
							OFFSET -15.6 -2 3	
							CHANNELS 3 Zrotation Xrotation Yrotation
							JOINT RightForeArm
							{
								OFFSET -3.5 -27 -1	
								CHANNELS 3 Zrotation Xrotation Yrotation
								JOINT RightHand
								{
									OFFSET -1 -27 1	
									CHANNELS 3 Zrotation Xrotation Yrotation
									End Site
									{
										OFFSET 0 -15 0
									}
								}
							}
						}
					}
					JOINT Neck
					{
						OFFSET 0 10 0	
						CHANNELS 3 Zrotation Xrotation Yrotation
						JOINT Head
						{
							OFFSET 0 12.7 3	
							CHANNELS 3 Zrotation Xrotation Yrotation
							End Site
							{
								OFFSET 0 12.7 3
							}
						}
					}
				}
			}
		}
	}
	JOINT LeftHip
	{
		OFFSET 0 0 0	
		CHANNELS 3 Zrotation Xrotation Yrotation
		JOINT LeftUpLeg
		{
			OFFSET 8.8 -6 0	
			CHANNELS 3 Zrotation Xrotation Yrotation
			JOINT LeftLeg
			{
				OFFSET 0 -39 2	
				CHANNELS 3 Zrotation Xrotation Yrotation
				JOINT LeftFoot
				{
					OFFSET 0 -43 -2	
					CHANNELS 3 Zrotation Xrotation Yrotation
					JOINT LeftFootFront
					{
						OFFSET 0 -7 8.5	
						CHANNELS 3 Zrotation Xrotation Yrotation
						End Site
						{
							OFFSET 0 -0.5 9
						}
					}
				}
				JOINT LeftHeel
				{
					OFFSET 0 -43 -2	
					CHANNELS 3 Zrotation Xrotation Yrotation
					End Site
					{
						OFFSET 0 -7.5 -5
					}
				}
			}
		}
	}
	JOINT RightHip
	{
		OFFSET 0 0 0	
		CHANNELS 3 Zrotation Xrotation Yrotation
		JOINT RightUpLeg
		{
			OFFSET -8.8 -6 0	
			CHANNELS 3 Zrotation Xrotation Yrotation
			JOINT RightLeg
			{
				OFFSET 0 -39 2	
				CHANNELS 3 Zrotation Xrotation Yrotation
				JOINT RightFoot
				{
					OFFSET 0 -43 -2	
					CHANNELS 3 Zrotation Xrotation Yrotation
					JOINT RightFootFront
					{
						OFFSET 0 -7 8.5	
						CHANNELS 3 Zrotation Xrotation Yrotation
						End Site
						{
							OFFSET 0 -0.5 9
						}
					}
				}
				JOINT RightHeel
				{
					OFFSET 0 -43 -2	
					CHANNELS 3 Zrotation Xrotation Yrotation
					End Site
					{
						OFFSET 0 -7.5 -5
					}
				}
			}
		}
	}
}
MOTION
Frames: 29
Frame Time: 0.05
0 95.5 0 -0 0 -0 -4.3191 25.474 4.4769 -0.31807 5.7952 1.6332 -0.31807 5.7952 1.6332 -0.25588 4.8686 1.3689 -0 0 -0 -13.586 -32.548 -36.637 -45.799 -33.768 -13.477 -28.358 -20.291 65.165 -0 0 -0 -27.014 -56.048 10.524 -0.53714 -6.1386 4.1573 -10.674 -0.12361 -17.024 4.3211 -4.2825 -7.9166 4.3211 -4.2825 -7.9166 -0 0 -0 -0 0 -0 -0 0 -0 -0 0 -0 -0 0 -0 -0 0 -0 -0 0 -0 -0 0 -0 -0 0 -0 -0 0 -0 -0 0 -0 -0 0 -0 
0 95.5 0 -0 0 -0 -3.9809 25.57 4.0306 -0.3933 5.7818 1.6671 -0.3933 5.7818 1.6671 -0.31883 4.8576 1.3969 -0 0 -0 -13.75 -32.438 -36.918 -45.528 -33.628 -13.35 -28.287 -20.608 65.03 -0 0 -0 -27.197 -55.821 10.349 -0.23615 -6.3222 4.4549 -10.594 0.59565 -16.024 4.3062 -4.4465 -7.9176 4.3062 -4.4465 -7.9176 -0 0 -0 -0 0 -0 -0 0 -0 -0 0 -0 -0 0 -0 -0 0 -0 -0 0 -0 -0 0 -0 -0 0 -0 -0 0 -0 -0 0 -0 -0 0 -0 
0 95.5 0 -0 0 -0 -3.6903 25.685 3.5886 -0.44721 5.7327 1.6741 -0.44721 5.7327 1.6741 -0.36414 4.8163 1.4024 -0 0 -0 -13.804 -32.279 -37.004 -45.29 -33.513 -13.27 -28.226 -21.001 65.09 -0 0 -0 -27.573 -55.552 9.9006 0.27006 -6.5934 4.9512 -10.387 1.1501 -15.128 4.1651 -4.4454 -7.9908 4.1651 -4.4454 -7.9908 -0 0 -0 -0 0 -0 -0 0 -0 -0 0 -0 -0 0 -0 -0 0 -0 -0 0 -0 -0 0 -0 -0 0 -0 -0 0 -0 -0 0 -0 -0 0 -0 
0 95.5 0 -0 0 -0 -3.4663 25.788 3.1308 -0.47763 5.6657 1.6638 -0.47763 5.6657 1.6638 -0.38989 4.7602 1.3937 -0 0 -0 -13.826 -32.142 -36.951 -45.19 -33.357 -13.286 -28.216 -21.386 65.129 -0 0 -0 -28.237 -55.243 9.5163 0.93587 -7.0641 5.4315 -10.776 1.5338 -14.884 4.104 -4.0591 -7.9962 4.104 -4.0591 -7.9962 -0 0 -0 -0 0 -0 -0 0 -0 -0 0 -0 -0 0 -0 -0 0 -0 -0 0 -0 -0 0 -0 -0 0 -0 -0 0 -0 -0 0 -0 -0 0 -0 
0 95.5 0 -0 0 -0 -3.2903 25.803 2.6616 -0.48979 5.6638 1.6665 -0.48979 5.6638 1.6665 -0.40008 4.7586 1.3958 -0 0 -0 -13.95 -32.149 -37.003 -45.249 -33.197 -13.391 -27.983 -21.753 65.273 -0 0 -0 -29.112 -54.873 9.2617 1.395 -7.6193 5.9372 -11.542 1.6023 -15.143 4.1282 -3.9412 -7.8884 4.1282 -3.9412 -7.8884 -0 0 -0 -0 0 -0 -0 0 -0 -0 0 -0 -0 0 -0 -0 0 -0 -0 0 -0 -0 0 -0 -0 0 -0 -0 0 -0 -0 0 -0 -0 0 -0 
0 95.5 0 -0 0 -0 -3.103 25.836 2.1533 -0.52271 5.6396 1.6425 -0.52271 5.6396 1.6425 -0.42793 4.7383 1.3755 -0 0 -0 -14.074 -32.149 -37.095 -45.337 -33.084 -13.426 -27.451 -22.038 65.407 -0 0 -0 -29.595 -54.673 9.1054 1.7718 -8.0263 6.7242 -11.927 1.301 -15.321 4.0049 -3.6936 -7.8545 4.0049 -3.6936 -7.8545 -0 0 -0 -0 0 -0 -0 0 -0 -0 0 -0 -0 0 -0 -0 0 -0 -0 0 -0 -0 0 -0 -0 0 -0 -0 0 -0 -0 0 -0 -0 0 -0 
0 95.5 0 -0 0 -0 -2.9591 25.88 1.6303 -0.48298 5.6336 1.625 -0.48298 5.6336 1.625 -0.39471 4.7332 1.361 -0 0 -0 -14.525 -32.244 -37.447 -45.359 -33.018 -13.326 -26.77 -22.287 65.684 -0 0 -0 -30.165 -54.6 8.9618 2.2333 -8.4677 7.4685 -11.922 1.0551 -14.919 3.9162 -3.367 -7.6353 3.9162 -3.367 -7.6353 -0 0 -0 -0 0 -0 -0 0 -0 -0 0 -0 -0 0 -0 -0 0 -0 -0 0 -0 -0 0 -0 -0 0 -0 -0 0 -0 -0 0 -0 -0 0 -0 
0 95.5 0 -0 0 -0 -2.8108 25.91 1.0971 -0.44684 5.6531 1.5185 -0.44684 5.6531 1.5185 -0.36503 4.7495 1.2718 -0 0 -0 -15.007 -32.529 -37.78 -45.202 -32.98 -13.061 -26.052 -22.419 65.958 -0 0 -0 -30.004 -54.699 9.6572 2.5277 -8.9631 8.0198 -11.903 0.88615 -14.111 3.6252 -3.2801 -7.4439 3.6252 -3.2801 -7.4439 -0 0 -0 -0 0 -0 -0 0 -0 -0 0 -0 -0 0 -0 -0 0 -0 -0 0 -0 -0 0 -0 -0 0 -0 -0 0 -0 -0 0 -0 -0 0 -0 
0 95.5 0 -0 0 -0 -2.4836 25.981 0.48837 -0.33727 5.703 1.4328 -0.33727 5.703 1.4328 -0.27353 4.7911 1.2006 -0 0 -0 -16.108 -32.887 -38.763 -44.717 -33.042 -12.453 -25.192 -22.634 66.377 -0 0 -0 -30.323 -54.959 10.022 2.8296 -9.4625 8.3817 -11.669 0.74744 -12.918 3.2884 -3.3634 -7.1318 3.2884 -3.3633 -7.1318 -0 0 -0 -0 0 -0 -0 0 -0 -0 0 -0 -0 0 -0 -0 0 -0 -0 0 -0 -0 0 -0 -0 0 -0 -0 0 -0 -0 0 -0 -0 0 -0 
0 95.5 0 -0 0 -0 -2.1383 26.014 -0.16622 -0.16821 5.8264 1.3457 -0.16821 5.8264 1.3457 -0.13198 4.8945 1.1286 -0 0 -0 -17.561 -33.393 -40.244 -43.825 -33.154 -11.292 -23.974 -23.063 67.175 -0 0 -0 -30.744 -55.593 10.261 3.079 -9.9195 8.4445 -11.339 0.6465 -11.401 2.7271 -3.5114 -6.8751 2.7271 -3.5114 -6.8751 -0 0 -0 -0 0 -0 -0 0 -0 -0 0 -0 -0 0 -0 -0 0 -0 -0 0 -0 -0 0 -0 -0 0 -0 -0 0 -0 -0 0 -0 -0 0 -0 
0 95.5 0 -0 0 -0 -1.8648 25.997 -0.80643 -0.036648 6.1988 1.2042 -0.036648 6.1988 1.2042 -0.021971 5.207 1.0106 -0 0 -0 -18.908 -34.603 -41.922 -42.394 -33.171 -9.5217 -22.27 -23.784 68.361 -0 0 -0 -31.242 -56.64 10.691 3.1811 -10.309 8.397 -11.154 0.23055 -10.836 2.2151 -3.9179 -6.482 2.2151 -3.9179 -6.482 -0 0 -0 -0 0 -0 -0 0 -0 -0 0 -0 -0 0 -0 -0 0 -0 -0 0 -0 -0 0 -0 -0 0 -0 -0 0 -0 -0 0 -0 -0 0 -0 
0 95.5 0 -0 0 -0 -1.5891 25.956 -1.4385 0.28168 6.3786 1.121 0.28168 6.3786 1.121 0.24487 5.3577 0.94309 -0 0 -0 -20.698 -35.169 -43.891 -40.765 -33.181 -7.4122 -20.125 -24.373 69.397 -0 0 -0 -32.197 -57.101 10.96 3.388 -10.616 8.3205 -10.954 -0.25599 -10.623 1.6758 -4.0861 -6.0198 1.6758 -4.0861 -6.0198 -0 0 -0 -0 0 -0 -0 0 -0 -0 0 -0 -0 0 -0 -0 0 -0 -0 0 -0 -0 0 -0 -0 0 -0 -0 0 -0 -0 0 -0 -0 0 -0 
0 95.5 0 -0 0 -0 -1.2807 25.831 -2.0682 0.44875 6.4386 0.97002 0.44875 6.4386 0.97002 0.38403 5.408 0.81762 -0 0 -0 -21.606 -35.364 -45.44 -39.014 -33.298 -5.1504 -18.024 -24.887 70.443 -0 0 -0 -32.058 -57.523 11.35 3.7562 -11.179 7.7137 -10.365 -0.26078 -8.9435 1.3522 -4.2383 -5.5492 1.3522 -4.2383 -5.5492 -0 0 -0 -0 0 -0 -0 0 -0 -0 0 -0 -0 0 -0 -0 0 -0 -0 0 -0 -0 0 -0 -0 0 -0 -0 0 -0 -0 0 -0 -0 0 -0 
0 95.5 0 -0 0 -0 -0.90593 25.685 -2.6845 0.56622 6.5729 0.73349 0.56622 6.5729 0.73349 0.48094 5.5208 0.62004 -0 0 -0 -22.323 -35.771 -46.815 -37.173 -33.382 -2.9118 -15.59 -25.413 71.609 -0 0 -0 -31.929 -58.478 11.029 4.5498 -11.837 6.6273 -9.6194 0.039039 -6.3826 1.0399 -4.5209 -4.9883 1.0399 -4.5209 -4.9883 -0 0 -0 -0 0 -0 -0 0 -0 -0 0 -0 -0 0 -0 -0 0 -0 -0 0 -0 -0 0 -0 -0 0 -0 -0 0 -0 -0 0 -0 -0 0 -0 
0 95.5 0 -0 0 -0 -0.47875 25.573 -3.3124 0.81479 6.5612 0.55456 0.81479 6.5612 0.55456 0.68819 5.5109 0.47178 -0 0 -0 -23.623 -35.711 -48.177 -35.202 -33.305 -0.81643 -13.14 -25.792 72.758 -0 0 -0 -32.803 -58.541 10.565 5.7954 -13.297 4.4504 -8.8293 0.22245 -5.1975 0.49554 -4.5902 -4.5436 0.49554 -4.5902 -4.5436 -0 0 -0 -0 0 -0 -0 0 -0 -0 0 -0 -0 0 -0 -0 0 -0 -0 0 -0 -0 0 -0 -0 0 -0 -0 0 -0 -0 0 -0 -0 0 -0 
0 95.5 0 -0 0 -0 -0.12579 25.434 -3.9215 1.0853 6.6391 0.35408 1.0853 6.6391 0.35408 0.91375 5.5764 0.30569 -0 0 -0 -25.197 -35.907 -49.397 -33.219 -33.023 1.3109 -10.887 -26.118 74.018 -0 0 -0 -34.774 -58.511 9.5438 7.5687 -15.179 2.6866 -6.7164 0.43471 -7.5414 -0.12418 -4.7997 -4.0889 -0.12418 -4.7997 -4.0889 -0 0 -0 -0 0 -0 -0 0 -0 -0 0 -0 -0 0 -0 -0 0 -0 -0 0 -0 -0 0 -0 -0 0 -0 -0 0 -0 -0 0 -0 -0 0 -0 
0 95.5 0 -0 0 -0 0.12618 25.216 -4.547 1.187 6.6642 -0.058657 1.187 6.6642 -0.058658 0.99579 5.598 -0.03991 -0 0 -0 -25.718 -36.279 -49.474 -31.217 -32.589 3.8388 -10.12 -26.351 74.203 -0 0 -0 -35.809 -58.653 9.2287 9.6156 -17.433 2.9098 -2.2727 0.93667 -13.795 -0.53467 -4.93 -3.2638 -0.53467 -4.93 -3.2638 -0 0 -0 -0 0 -0 -0 0 -0 -0 0 -0 -0 0 -0 -0 0 -0 -0 0 -0 -0 0 -0 -0 0 -0 -0 0 -0 -0 0 -0 -0 0 -0 
0 95.5 0 -0 0 -0 0.37379 25.017 -5.2315 1.2677 6.7191 -0.45642 1.2677 6.7191 -0.45643 1.0604 5.6448 -0.37305 -0 0 -0 -26.283 -36.769 -49.546 -29.161 -32.058 6.547 -9.81 -26.821 74.108 -0 0 -0 -37.174 -59.035 8.371 12.088 -20.422 4.5408 2.478 1.6437 -20.967 -1.0695 -4.9997 -2.5474 -1.0695 -4.9997 -2.5474 -0 0 -0 -0 0 -0 -0 0 -0 -0 0 -0 -0 0 -0 -0 0 -0 -0 0 -0 -0 0 -0 -0 0 -0 -0 0 -0 -0 0 -0 -0 0 -0 
0 95.5 0 -0 0 -0 0.69667 24.792 -5.9717 1.5256 6.9772 -0.82847 1.5256 6.9772 -0.82847 1.2736 5.8623 -0.68277 -0 0 -0 -28.071 -37.606 -50.336 -27.754 -31.986 8.6788 -9.0098 -26.938 74.21 -0 0 -0 -39.769 -59.92 6.9951 15.055 -24.346 6.1768 4.8436 2.7803 -25.756 -1.8721 -5.1439 -1.9423 -1.8721 -5.1439 -1.9423 -0 0 -0 -0 0 -0 -0 0 -0 -0 0 -0 -0 0 -0 -0 0 -0 -0 0 -0 -0 0 -0 -0 0 -0 -0 0 -0 -0 0 -0 -0 0 -0 
0 95.5 0 -0 0 -0 1.1015 24.506 -6.7479 1.4649 7.3029 -1.396 1.4649 7.3029 -1.396 1.2173 6.1369 -1.1589 -0 0 -0 -29.061 -38.767 -50.608 -26.147 -31.781 11.029 -8.4625 -26.858 74.264 -0 0 -0 -40.006 -61.627 7.7172 17.692 -28.158 8.0613 6.1367 3.1724 -29.352 -2.1076 -5.325 -0.95238 -2.1076 -5.325 -0.95238 -0 0 -0 -0 0 -0 -0 0 -0 -0 0 -0 -0 0 -0 -0 0 -0 -0 0 -0 -0 0 -0 -0 0 -0 -0 0 -0 -0 0 -0 -0 0 -0 
0 95.5 0 -0 0 -0 1.3612 24.265 -7.5413 1.371 7.4376 -1.8397 1.371 7.4376 -1.8397 1.1344 6.2506 -1.5318 -0 0 -0 -29.452 -39.054 -50.499 -24.256 -31.4 13.444 -9.2814 -27.001 73.755 -0 0 -0 -38.385 -63.026 10.352 19.564 -31.334 10.089 7.9355 1.9686 -33.084 -2.4035 -5.5954 -0.33362 -2.4035 -5.5954 -0.33362 -0 0 -0 -0 0 -0 -0 0 -0 -0 0 -0 -0 0 -0 -0 0 -0 -0 0 -0 -0 0 -0 -0 0 -0 -0 0 -0 -0 0 -0 -0 0 -0 
0 95.5 0 -0 0 -0 1.5079 24.169 -8.3751 1.4361 7.5406 -2.0026 1.4361 7.5407 -2.0026 1.1873 6.3376 -1.6677 -0 0 -0 -30.365 -39.036 -51.062 -23.015 -31.485 14.994 -10.522 -27.115 73.254 -0 0 -0 -38.256 -64.016 11.721 20.665 -33.342 12.715 10.296 -1.0696 -36.916 -2.9165 -6.0442 -0.17046 -2.9165 -6.0442 -0.17046 -0 0 -0 -0 0 -0 -0 0 -0 -0 0 -0 -0 0 -0 -0 0 -0 -0 0 -0 -0 0 -0 -0 0 -0 -0 0 -0 -0 0 -0 -0 0 -0 
0 95.5 0 -0 0 -0 2.0562 24.043 -9.3066 1.2952 7.642 -1.9685 1.2951 7.642 -1.9685 1.069 6.4224 -1.6401 -0 0 -0 -30.872 -38.835 -51.871 -22.66 -32.303 15.424 -12.065 -27.3 72.656 -0 0 -0 -38.569 -64.76 12.122 20.602 -33.958 16.008 12.339 -5.1208 -40.268 -3.2656 -6.6412 -0.36521 -3.2656 -6.6412 -0.36521 -0 0 -0 -0 0 -0 -0 0 -0 -0 0 -0 -0 0 -0 -0 0 -0 -0 0 -0 -0 0 -0 -0 0 -0 -0 0 -0 -0 0 -0 -0 0 -0 
0 95.5 0 -0 0 -0 2.9177 23.838 -10.241 1.0526 7.6375 -1.9119 1.0526 7.6375 -1.9119 0.86604 6.418 -1.5949 -0 0 -0 -31.068 -38.471 -51.841 -23.104 -33.209 14.727 -14.045 -27.302 71.444 -0 0 -0 -38.203 -65.026 13.266 19.231 -33.706 19.551 12.753 -8.5417 -42.078 -3.4705 -7.0795 -0.56612 -3.4705 -7.0795 -0.56612 -0 0 -0 -0 0 -0 -0 0 -0 -0 0 -0 -0 0 -0 -0 0 -0 -0 0 -0 -0 0 -0 -0 0 -0 -0 0 -0 -0 0 -0 -0 0 -0 
0 95.5 0 -0 0 -0 3.6739 23.588 -10.962 0.8523 7.8248 -1.7439 0.8523 7.8248 -1.7439 0.69905 6.5746 -1.4554 -0 0 -0 -31.709 -38.613 -52.188 -23.628 -33.722 13.859 -15.414 -26.928 70.854 -0 0 -0 -38.836 -65.371 13.115 17.689 -33.014 22.577 10.309 -9.637 -40.75 -3.5224 -7.5062 -0.7584 -3.5224 -7.5062 -0.7584 -0 0 -0 -0 0 -0 -0 0 -0 -0 0 -0 -0 0 -0 -0 0 -0 -0 0 -0 -0 0 -0 -0 0 -0 -0 0 -0 -0 0 -0 -0 0 -0 
0 95.5 0 -0 0 -0 4.1478 23.322 -11.373 0.66884 8.029 -1.6464 0.66884 8.029 -1.6464 0.54557 6.7457 -1.375 -0 0 -0 -31.909 -39.066 -52.338 -24.074 -34.039 13.368 -16.111 -26.501 70.739 -0 0 -0 -38.646 -65.697 13.51 16.675 -32.676 24.283 4.4631 -7.922 -35.378 -3.4155 -7.6964 -0.66877 -3.4155 -7.6964 -0.66877 -0 0 -0 -0 0 -0 -0 0 -0 -0 0 -0 -0 0 -0 -0 0 -0 -0 0 -0 -0 0 -0 -0 0 -0 -0 0 -0 -0 0 -0 -0 0 -0 
0 95.5 0 -0 0 -0 4.4255 23.116 -11.565 0.62846 8.0618 -1.6301 0.62846 8.0618 -1.6301 0.51177 6.7732 -1.3617 -0 0 -0 -31.781 -39.236 -52.18 -24.089 -34.221 13.315 -16.18 -26.286 71.092 -0 0 -0 -37.939 -65.731 14.446 16.304 -32.533 25.275 -3.1068 -5.9547 -28.098 -3.421 -7.4937 -0.36847 -3.421 -7.4937 -0.36847 -0 0 -0 -0 0 -0 -0 0 -0 -0 0 -0 -0 0 -0 -0 0 -0 -0 0 -0 -0 0 -0 -0 0 -0 -0 0 -0 -0 0 -0 -0 0 -0 
0 95.5 0 -0 0 -0 4.5352 22.919 -11.655 0.59684 8.0197 -1.6348 0.59684 8.0197 -1.6348 0.48529 6.7377 -1.366 -0 0 -0 -31.054 -39.074 -51.525 -23.932 -34.334 13.456 -17.151 -26.269 71.233 -0 0 -0 -36.7 -65.757 15.42 16.252 -32.344 25.978 -9.1707 -5.4616 -21.816 -3.308 -7.1363 0.043869 -3.308 -7.1363 0.043872 -0 0 -0 -0 0 -0 -0 0 -0 -0 0 -0 -0 0 -0 -0 0 -0 -0 0 -0 -0 0 -0 -0 0 -0 -0 0 -0 -0 0 -0 -0 0 -0 
0 95.5 0 -0 0 -0 4.5132 22.714 -11.632 0.47344 7.9539 -1.6648 0.47344 7.9539 -1.6648 0.38161 6.6823 -1.3925 -0 0 -0 -30.139 -38.865 -50.697 -23.796 -34.284 13.657 -18.58 -26.118 70.782 -0 0 -0 -34.932 -65.691 16.712 16.237 -32.202 26.237 -12.798 -6.1221 -18.037 -2.8569 -6.8475 0.56195 -2.8569 -6.8475 0.56195 -0 0 -0 -0 0 -0 -0 0 -0 -0 0 -0 -0 0 -0 -0 0 -0 -0 0 -0 -0 0 -0 -0 0 -0 -0 0 -0 -0 0 -0 -0 0 -0 
